<svg width="26" height="26" viewBox="0 0 26 26" fill="none" xmlns="http://www.w3.org/2000/svg">
<path d="M9.87203 8.94455L6.46862 17.0658H4.24724L2.57359 10.5852C2.47056 10.1856 2.3825 10.0402 2.07355 9.87044C1.56746 9.59683 0.735008 9.34018 0 9.18032L0.0514414 8.9446H3.62537C4.08119 8.9446 4.49099 9.24862 4.59403 9.77274L5.47899 14.4732L7.66482 8.9446L9.87203 8.94455ZM18.5732 14.4131C18.583 12.2708 15.6089 12.1542 15.6303 11.1958C15.6361 10.9033 15.9134 10.5937 16.5206 10.5156C16.8222 10.4754 17.652 10.446 18.5925 10.8778L18.9611 9.15646C18.4551 8.97278 17.8046 8.79688 16.9962 8.79688C14.9198 8.79688 13.458 9.90132 13.4457 11.4816C13.4321 12.6502 14.4886 13.3023 15.2855 13.6915C16.1038 14.0897 16.3774 14.344 16.3745 14.7011C16.3692 15.2462 15.7216 15.4844 15.1176 15.4951C14.0611 15.5116 13.4483 15.2096 12.959 14.9817L12.5786 16.7623C13.0688 16.9873 13.9764 17.1827 14.9156 17.1943C17.1225 17.1942 18.5662 16.1015 18.5732 14.4131ZM24.0565 17.0658H26L24.3042 8.9446H22.51C22.1069 8.9446 21.767 9.17972 21.6155 9.53991L18.465 17.0658H20.6702L21.1079 15.853H23.8035L24.0565 17.0658ZM21.7122 14.1884L22.8186 11.139L23.455 14.1884H21.7122ZM12.8743 8.94455L11.1361 17.0658H9.0348L10.7734 8.94455H12.8743Z" fill="#1A2ADF"/>
</svg>
